# xmcd
#
# Track frame offsets:
#	150
#	65937
#	103872
#	148057
#
# Disc length: 2586 seconds
#
# Revision: 0
# Processed by: cddbd v1.5.1PL0 Copyright (c) Steve Scherf et al.
# Submitted via: EasyCDDAExtractor 7.1.2.1
#
DISCID=3f0a1804
DTITLE=Deep Purple - Praha, Ceska Republika - CD 3
DYEAR=2000
DGENRE=Hard Rock
TTITLE0=3rd Movement
TTITLE1=Perfect Strangers
TTITLE2=Smoke On The Water
TTITLE3=Highway Star
EXTD=
EXTT0=
EXTT1=
EXTT2=
EXTT3=
PLAYORDER=
